<?xml version="1.0" encoding="UTF-8"?>
<svg xmlns="http://www.w3.org/2000/svg" xmlns:xlink="http://www.w3.org/1999/xlink" width="48px" height="48px" viewBox="0 0 48 48" version="1.1">
<g id="surface1">
<path style=" stroke:none;fill-rule:nonzero;fill:rgb(0%,0%,0%);fill-opacity:1;" d="M 9.8125 42.066406 C 9.277344 42.472656 8.746094 42.859375 8.109375 43.066406 C 7.605469 43.230469 7.089844 43.273438 6.59375 43.082031 C 5.4375 42.632812 4.589844 41.867188 4.328125 40.605469 C 4.171875 39.851562 4.371094 39.136719 4.707031 38.457031 C 5.21875 37.433594 5.960938 36.59375 6.773438 35.808594 C 7.859375 34.761719 9.027344 33.808594 10.207031 32.871094 C 10.800781 32.398438 11.394531 31.929688 11.992188 31.460938 C 12.207031 31.289062 12.386719 31.085938 12.527344 30.847656 C 12.65625 30.625 12.804688 30.417969 12.609375 30.125 C 12.472656 29.921875 12.550781 29.640625 12.742188 29.484375 C 13.3125 29.007812 13.875 28.523438 14.574219 28.238281 C 15.046875 28.042969 15.527344 27.996094 16.015625 28.164062 C 16.140625 28.210938 16.21875 28.171875 16.304688 28.09375 C 17.800781 26.753906 19.300781 25.421875 20.800781 24.082031 C 23.210938 21.929688 25.621094 19.773438 28.035156 17.621094 C 29.652344 16.175781 31.273438 14.730469 32.898438 13.292969 C 34.542969 11.835938 36.191406 10.390625 37.84375 8.945312 C 39.335938 7.636719 40.835938 6.339844 42.328125 5.03125 C 42.511719 4.867188 42.675781 4.828125 42.894531 4.957031 C 43.035156 5.039062 43.167969 5.136719 43.296875 5.234375 C 43.566406 5.4375 43.59375 5.632812 43.378906 5.886719 C 42.996094 6.34375 42.554688 6.742188 42.132812 7.160156 C 39.460938 9.800781 36.78125 12.433594 34.113281 15.082031 C 31.628906 17.542969 29.152344 20.019531 26.679688 22.492188 C 24.058594 25.117188 21.445312 27.753906 18.824219 30.378906 C 18.695312 30.507812 18.667969 30.613281 18.738281 30.785156 C 18.9375 31.265625 18.890625 31.75 18.703125 32.222656 C 18.425781 32.921875 17.980469 33.515625 17.5 34.082031 C 17.324219 34.285156 17.066406 34.34375 16.8125 34.222656 C 16.660156 34.148438 16.558594 34.183594 16.429688 34.257812 C 15.933594 34.542969 15.582031 34.96875 15.257812 35.421875 C 14.34375 36.699219 13.460938 37.996094 12.484375 39.226562 C 11.675781 40.242188 10.835938 41.226562 9.8125 42.066406 M 15.042969 33.765625 C 15.242188 33.574219 15.484375 33.433594 15.730469 33.253906 C 15.046875 32.59375 14.382812 31.949219 13.683594 31.269531 C 13.304688 32.039062 12.679688 32.480469 12.066406 32.9375 C 10.3125 34.246094 8.601562 35.605469 7.089844 37.199219 C 6.535156 37.785156 6.039062 38.417969 5.695312 39.152344 C 5.34375 39.910156 5.355469 40.625 5.960938 41.253906 C 6.425781 41.734375 6.941406 42.113281 7.671875 41.933594 C 8.003906 41.851562 8.296875 41.6875 8.578125 41.503906 C 9.371094 40.984375 10.019531 40.308594 10.636719 39.601562 C 11.769531 38.296875 12.765625 36.886719 13.742188 35.464844 C 14.140625 34.886719 14.511719 34.285156 15.042969 33.765625 M 15.824219 29.429688 C 15.691406 29.339844 15.546875 29.261719 15.390625 29.277344 C 14.875 29.328125 14.496094 29.628906 14.113281 29.976562 C 15.082031 30.914062 16.023438 31.832031 16.984375 32.765625 C 17.214844 32.414062 17.441406 32.109375 17.585938 31.753906 C 17.703125 31.46875 17.648438 31.214844 17.445312 31 C 16.929688 30.464844 16.414062 29.933594 15.824219 29.429688 Z M 15.824219 29.429688 "/>
<path style=" stroke:none;fill-rule:nonzero;fill:rgb(0%,0%,0%);fill-opacity:1;" d="M 23.03125 12.675781 C 23.234375 12.710938 23.417969 12.742188 23.632812 12.777344 C 23.632812 11.402344 23.632812 10.039062 23.632812 8.636719 C 23.292969 8.71875 22.960938 8.796875 22.632812 8.882812 C 20.90625 9.316406 19.183594 9.753906 17.460938 10.191406 C 17.125 10.277344 17.125 10.277344 17.125 10.625 C 17.125 12.421875 17.105469 14.21875 17.132812 16.015625 C 17.148438 16.925781 16.753906 17.578125 16.027344 18.050781 C 15.273438 18.539062 14.453125 18.710938 13.570312 18.445312 C 12.898438 18.242188 12.394531 17.84375 12.238281 17.132812 C 12.074219 16.390625 12.363281 15.773438 12.917969 15.296875 C 13.71875 14.609375 14.652344 14.417969 15.679688 14.644531 C 15.746094 14.660156 15.8125 14.671875 15.878906 14.683594 C 15.957031 14.585938 15.929688 14.480469 15.929688 14.382812 C 15.929688 12.210938 15.929688 10.039062 15.929688 7.867188 C 15.929688 7.421875 16.0625 7.234375 16.488281 7.128906 C 18.988281 6.492188 21.492188 5.855469 23.992188 5.226562 C 24.535156 5.089844 24.859375 5.351562 24.859375 5.910156 C 24.859375 8.65625 24.847656 11.40625 24.863281 14.15625 C 24.871094 15.273438 24.285156 15.972656 23.339844 16.410156 C 22.542969 16.777344 21.722656 16.8125 20.917969 16.40625 C 19.898438 15.890625 19.617188 14.6875 20.324219 13.789062 C 21.003906 12.917969 21.925781 12.589844 23.03125 12.675781 Z M 23.03125 12.675781 "/>
</g>
</svg>
